<?xml version="1.0" encoding="UTF-8" standalone="no"?>
<svg
   xmlns:dc="http://purl.org/dc/elements/1.1/"
   xmlns:cc="http://creativecommons.org/ns#"
   xmlns:rdf="http://www.w3.org/1999/02/22-rdf-syntax-ns#"
   xmlns:svg="http://www.w3.org/2000/svg"
   xmlns="http://www.w3.org/2000/svg"
   xmlns:sodipodi="http://sodipodi.sourceforge.net/DTD/sodipodi-0.dtd"
   xmlns:inkscape="http://www.inkscape.org/namespaces/inkscape"
   version="1.1"
   id="svg4226"
   height="512"
   width="512"
   inkscape:version="0.48.5 r10040"
   sodipodi:docname="users-25.svg">
  <sodipodi:namedview
     pagecolor="#ffffff"
     bordercolor="#666666"
     borderopacity="1"
     objecttolerance="10"
     gridtolerance="10"
     guidetolerance="10"
     inkscape:pageopacity="0"
     inkscape:pageshadow="2"
     inkscape:window-width="1016"
     inkscape:window-height="642"
     id="namedview30"
     showgrid="false"
     inkscape:zoom="0.4609375"
     inkscape:cx="256"
     inkscape:cy="256"
     inkscape:window-x="0"
     inkscape:window-y="0"
     inkscape:window-maximized="0"
     inkscape:current-layer="svg4226" />
  <metadata
     id="metadata4257">
    <rdf:RDF>
      <cc:Work
         rdf:about="">
        <dc:format>image/svg+xml</dc:format>
        <dc:type
           rdf:resource="http://purl.org/dc/dcmitype/StillImage" />
        <dc:title></dc:title>
      </cc:Work>
    </rdf:RDF>
  </metadata>
  <defs
     id="defs4255" />
  <path
     id="Shape 12"
     style="stroke:none;fill:#b3b3b3"
     fill-rule="nonzero"
     d="M 419.426666,393.498413 C 399.031616,482.706512 294.637573,447.769043 259.000000,432.947540 C 259.000000,432.947540 259.000000,432.852722 259.000000,432.852722 C 223.362427,447.685608 118.968384,482.649902 98.573334,393.373322 C 98.573334,393.373322 135.153320,393.766663 124.173340,279.026672 C 124.173340,279.026672 84.543243,51.726807 259.000000,70.725372 C 259.000000,70.725372 259.000000,71.097839 259.000000,71.097839 C 433.456757,52.113831 393.826660,279.239410 393.826660,279.239410 C 382.846680,393.891449 419.426666,393.498413 419.426666,393.498413 Z" />
  <path
     style="fill:#666666;fill-rule:nonzero;stroke:none"
     d="M 237.35911,67.418432 C 85.41724,66.957995 122.01536,276.85593 122.01536,276.85593 c 10.97998,114.73999 -25.625,114.34375 -25.625,114.34375 20.39505,89.27658 124.79993,54.30163 160.4375,39.46875 l 0,0.125 c 35.63757,14.8215 140.04245,49.73935 160.4375,-39.46875 0,0 -36.57373,0.40204 -25.59375,-114.25 0,0 39.61301,-227.140256 -134.84375,-208.156248 l 0,-0.375 c -6.81472,-0.742131 -13.29225,-1.106283 -19.46875,-1.125 z m 1.84375,8.6875 c 5.59181,0.01785 11.45538,0.354904 17.625,1.0625 l 0,0.375 c 157.9422,-18.100583 122.0625,198.437498 122.0625,198.437498 -9.94065,109.31668 23.1875,108.96875 23.1875,108.96875 -18.46443,85.05678 -112.98598,51.72552 -145.25,37.59375 l 0,-0.0937 c -32.26402,14.14263 -126.7856,47.49707 -145.25,-37.625 0,0 33.12808,0.36929 23.1875,-109.03125 0,0 -33.12112,-200.126509 104.4375,-199.687498 z"
     id="path3007"
     inkscape:connector-curvature="0" />
  <path
     id="body-bg-flat copy"
     style="stroke:none;fill:#ffffff"
     fill-rule="nonzero"
     d="M 114.359985,502.000000 C 114.359985,502.000000 107.744995,412.011780 192.440002,403.613342 C 192.440002,403.613342 230.413330,403.613342 230.413330,403.613342 C 230.413330,403.613342 230.413330,386.119995 230.413330,386.119995 C 230.413330,386.119995 257.125000,397.593323 284.173340,387.399994 C 284.173340,387.399994 285.026672,403.613342 285.026672,403.613342 C 285.026672,403.613342 329.399994,403.613342 329.399994,403.613342 C 329.399994,403.613342 405.385406,406.597595 401.933319,502.853333 C 401.933319,502.853333 114.359985,502.000000 114.359985,502.000000 Z" />
  <path
     id="Ellipse 5"
     style="stroke: none; fill: rgb(59, 67, 79)"
     fill-rule="nonzero"
     d="M 272.226654,466.333344 C 273.876160,466.333344 275.213348,467.670502 275.213348,469.320007 C 275.213348,470.969482 273.876160,472.306671 272.226654,472.306671 C 270.577179,472.306671 269.239990,470.969482 269.239990,469.320007 C 269.239990,467.670502 270.577179,466.333344 272.226654,466.333344 Z" />
  <path
     id="Ellipse 5 copy"
     style="stroke: none; fill: rgb(59, 67, 79)"
     fill-rule="nonzero"
     d="M 272.226654,485.959991 C 273.876160,485.959991 275.213348,487.297180 275.213348,488.946655 C 275.213348,490.596161 273.876160,491.933319 272.226654,491.933319 C 270.577179,491.933319 269.239990,490.596161 269.239990,488.946655 C 269.239990,487.297180 270.577179,485.959991 272.226654,485.959991 Z" />
  <path
     id="Shape 2 copy 9"
     style="stroke: none; fill: rgb(59, 67, 79)"
     fill-rule="evenodd"
     d="M 306.786652,426.226685 C 306.786652,426.226685 285.026672,458.653351 285.026672,458.653351 C 279.107239,440.306061 261.986664,447.133331 261.986664,447.133331 C 261.986664,447.133331 261.986664,501.321503 261.986664,501.321503 C 261.986664,502.734528 260.649475,503.880005 259.000000,503.880005 C 257.350525,503.880005 256.013336,502.734528 256.013336,501.321503 C 256.013336,501.321503 256.013336,447.132050 256.013336,447.132050 C 255.874817,447.077118 238.890472,440.380920 233.001587,458.653351 C 233.001587,458.653351 211.265228,426.226685 211.265228,426.226685 C 211.265228,426.226685 202.857147,404.849976 228.313354,395.506683 C 228.313354,386.184052 228.313354,385.693329 228.313354,385.693329 C 228.313354,385.693329 233.126953,385.693329 233.126953,385.693329 C 233.126953,385.693329 233.126953,403.517151 233.126953,416.577057 C 233.744934,421.893341 237.405304,437.041290 259.000000,442.013336 C 280.618164,437.041290 284.282532,421.893341 284.901184,416.577057 C 284.901184,403.517151 284.901184,385.693329 284.901184,385.693329 C 284.901184,385.693329 289.720001,385.693329 289.720001,385.693329 C 289.720001,385.693329 289.720001,386.184052 289.720001,395.506683 C 315.203857,404.849976 306.786652,426.226685 306.786652,426.226685 Z M 232.749268,429.097198 C 231.589020,427.783264 229.917877,424.519989 229.917877,424.519989 C 229.917877,424.519989 228.313354,419.180023 228.313354,416.839996 C 228.313354,413.933655 228.313354,410.118652 228.313354,406.017731 C 227.950470,401.136780 227.034760,401.053345 227.034760,401.053345 C 208.040985,410.408569 216.379669,424.946655 216.379669,424.946655 C 216.379669,424.946655 232.149200,449.693329 232.149200,449.693329 C 238.307312,439.258850 244.935303,441.160004 244.935303,441.160004 C 239.083344,438.177429 235.245422,433.548492 232.749268,429.097198 Z M 291.000000,401.053345 C 291.000000,401.053345 290.083282,401.136780 289.720001,406.017731 C 289.720001,410.118652 289.720001,413.933655 289.720001,416.839996 C 289.720001,419.180023 288.113739,424.519989 288.113739,424.519989 C 288.113739,424.519989 286.440765,427.783264 285.279266,429.097198 C 282.780396,433.548492 278.938293,438.177429 273.079987,441.160004 C 273.079987,441.160004 279.715179,439.258850 285.880005,449.693329 C 285.880005,449.693329 301.666656,424.946655 301.666656,424.946655 C 301.666656,424.946655 310.014404,410.408569 291.000000,401.053345 Z" />
  <path
     id="2 copy 5"
     style="stroke: none; fill: rgb(255, 255, 255)"
     fill-rule="nonzero"
     d="M 259.214661,116.466644 C 312.292542,116.466644 354.186951,166.067871 352.824738,225.664948 C 352.824738,225.664948 351.376923,289.006104 351.376923,289.006104 C 350.093597,345.152466 308.845428,389.533325 259.214661,389.533325 C 209.583893,389.533325 168.335724,345.152466 167.052399,289.006104 C 167.052399,289.006104 165.604584,225.664948 165.604584,225.664948 C 164.242401,166.067871 206.136780,116.466644 259.214661,116.466644 Z" />
  <path
     id="usta"
     style="stroke: none; fill: rgb(59, 67, 79)"
     fill-rule="nonzero"
     d="M 305.079987,327.325928 C 297.324768,334.059753 279.808014,340.466644 259.426697,340.466644 C 239.045349,340.466644 221.528595,334.059753 213.773346,327.325928 C 213.773346,327.325928 212.979889,325.142639 214.144043,323.978485 C 215.329742,322.792786 217.186676,323.050842 217.186676,323.050842 C 224.933777,329.789246 239.037567,335.346680 259.426697,335.346680 C 279.815796,335.346680 293.919586,329.789246 301.666687,323.050842 C 301.666687,323.050842 303.561707,322.346893 304.482269,323.267456 C 306.255310,325.040497 305.079987,327.325928 305.079987,327.325928 Z" />
  <path
     id="2 line"
     style="stroke: none; fill: rgb(59, 67, 79)"
     fill-rule="evenodd"
     d="M 357.089386,223.701141 C 357.089386,223.701141 355.572327,289.615509 355.572327,289.615509 C 354.227631,348.042816 311.006287,394.226654 259.001404,394.226654 C 206.996490,394.226654 163.775177,348.042816 162.430450,289.615509 C 162.430450,289.615509 160.913361,223.701141 160.913361,223.701141 C 159.486023,161.682922 203.384491,110.066650 259.001404,110.066650 C 314.618317,110.066650 358.516754,161.682922 357.089386,223.701141 Z M 258.788300,116.893311 C 206.436035,116.893311 165.114380,166.107025 166.457916,225.238495 C 166.457916,225.238495 167.885956,288.084808 167.885956,288.084808 C 169.151733,343.792511 209.836029,387.826660 258.788300,387.826660 C 307.740570,387.826660 348.424835,343.792511 349.690613,288.084808 C 349.690613,288.084808 351.118622,225.238495 351.118622,225.238495 C 352.462219,166.107025 311.140564,116.893311 258.788300,116.893311 Z" />
  <path
     id="-"
     style="stroke: none; fill: rgb(59, 67, 79)"
     fill-rule="nonzero"
     d="M 245.346680,350.706665 C 245.346680,350.706665 272.653351,350.706665 272.653351,350.706665 C 272.653351,350.706665 272.653351,354.973328 272.653351,354.973328 C 272.653351,354.973328 245.346680,354.973328 245.346680,354.973328 C 245.346680,354.973328 245.346680,350.706665 245.346680,350.706665 Z" />
  <path
     id="oko"
     style="stroke: none; fill: rgb(59, 67, 79)"
     fill-rule="nonzero"
     d="M 212.066681,238.066681 C 216.779510,238.066681 220.600006,241.887177 220.600006,246.600006 C 220.600006,251.312836 216.779510,255.133331 212.066681,255.133331 C 207.353851,255.133331 203.533325,251.312836 203.533325,246.600006 C 203.533325,241.887177 207.353851,238.066681 212.066681,238.066681 Z" />
  <path
     id="oko_1"
     style="stroke: none; fill: rgb(59, 67, 79)"
     fill-rule="nonzero"
     d="M 306.786652,238.066681 C 311.499481,238.066681 315.319977,241.887177 315.319977,246.600006 C 315.319977,251.312836 311.499481,255.133331 306.786652,255.133331 C 302.073853,255.133331 298.253326,251.312836 298.253326,246.600006 C 298.253326,241.887177 302.073853,238.066681 306.786652,238.066681 Z" />
  <path
     id="Ellipse 3 copy"
     style="stroke: none; fill: rgb(245, 243, 239)"
     fill-rule="nonzero"
     d="M 211.640015,269.640015 C 219.887451,269.640015 226.573334,270.113220 226.573334,279.453339 C 226.573334,289.087250 219.887451,289.266663 211.640015,289.266663 C 203.392548,289.266663 196.706696,287.512146 196.706696,279.453339 C 196.706696,270.039642 203.392548,269.640015 211.640015,269.640015 Z" />
  <path
     id="Ellipse 3 copy 2"
     style="stroke: none; fill: rgb(245, 243, 239)"
     fill-rule="nonzero"
     d="M 310.626678,269.640015 C 318.874115,269.640015 325.559998,270.113220 325.559998,279.453339 C 325.559998,289.087250 318.874115,289.266663 310.626678,289.266663 C 302.379211,289.266663 295.693359,287.512146 295.693359,279.453339 C 295.693359,270.039642 302.379211,269.640015 310.626678,269.640015 Z" />
  <path
     id="R copy"
     style="stroke: none; fill: rgb(59, 67, 79)"
     fill-rule="nonzero"
     d="M 282.000000,222.610168 C 282.000000,222.610168 284.471436,225.749329 284.471436,225.749329 C 284.471436,225.749329 286.004822,227.694916 286.004822,227.694916 C 286.004822,227.694916 313.155151,212.702881 332.000000,230.000000 C 332.000000,230.000000 334.009155,230.984924 334.009155,230.984924 C 334.009155,230.984924 329.366699,205.908600 288.727692,220.576416 C 286.583557,221.158020 284.346405,221.829254 282.000000,222.610168 Z" />
  <path
     id="L copy"
     style="stroke: none; fill: rgb(59, 67, 79)"
     fill-rule="nonzero"
     d="M 235.000000,222.627625 C 235.000000,222.627625 232.528564,225.760254 232.528564,225.760254 C 232.528564,225.760254 230.995178,227.701782 230.995178,227.701782 C 230.995178,227.701782 203.844849,212.740936 185.000000,230.002075 C 185.000000,230.002075 182.990845,230.984955 182.990845,230.984955 C 182.990845,230.984955 187.633301,205.960754 228.272308,220.598083 C 230.416443,221.178497 232.653595,221.848328 235.000000,222.627625 Z" />
  <path
     id="Rectangle 19"
     style="stroke: none; fill: rgb(59, 67, 79)"
     fill-rule="nonzero"
     d="M 350.306671,186.013336 C 350.306671,186.013336 368.226654,186.013336 368.226654,186.013336 C 368.226654,186.013336 368.226654,228.679993 368.226654,228.679993 C 368.226654,228.679993 350.306671,228.679993 350.306671,228.679993 C 350.306671,228.679993 350.306671,186.013336 350.306671,186.013336 Z" />
  <path
     id="Shape 15"
     style="stroke:none;fill:#b3b3b3"
     fill-rule="nonzero"
     d="M 153.778351,224.743378 C 153.778351,224.743378 172.625946,188.453461 208.693420,194.225952 C 208.693420,194.225952 210.120056,202.492096 217.875580,211.377777 C 217.875580,211.377777 226.366791,190.825775 252.549622,185.036041 C 273.349762,180.436584 293.095551,163.855377 293.095551,163.855377 C 293.095551,163.855377 296.167175,196.806580 336.696198,205.982422 C 336.696198,205.982422 372.207123,210.373016 369.629883,190.751007 C 367.052643,171.128998 347.346008,85.723602 252.979858,98.652496 C 158.613739,111.581360 136.450958,145.850189 152.940125,223.883911 " />
  <path
     id="Shape 11 copy"
     style="stroke: none; fill: rgb(247, 251, 251)"
     fill-rule="nonzero"
     d="M 159.807220,233.313141 C 159.795441,233.313812 158.759613,232.486603 156.803619,231.870758 C 155.826019,231.563507 154.611023,231.310760 153.226166,231.248444 C 152.880310,231.232880 152.524353,231.229187 152.160126,231.239532 C 151.795898,231.249878 151.423370,231.274231 151.044708,231.314667 C 150.287476,231.395569 149.505402,231.540955 148.718414,231.767334 C 145.567261,232.672913 142.352692,234.874664 140.464783,239.419098 C 139.517090,241.691437 138.891907,244.549713 138.726624,248.125916 C 138.685272,249.019989 138.672638,249.958923 138.690765,250.944794 C 138.708923,251.930664 138.757874,252.963470 138.839630,254.045288 C 139.003052,256.208832 139.298157,258.568451 139.737854,261.139679 C 139.728241,261.137146 139.327759,268.909668 142.106445,277.840820 C 144.718689,286.572784 150.991516,297.299225 162.573334,300.364410 C 161.241302,278.185028 161.199921,255.589905 159.807220,233.313141 C 159.807220,233.313141 159.807220,233.313141 159.807220,233.313141 Z" />
  <path
     id="Shape 3"
     style="stroke: none; fill: rgb(59, 67, 79)"
     fill-rule="nonzero"
     d="M 162.127869,234.207275 C 162.127869,234.207275 141.951477,227.955597 142.661530,248.698090 C 142.661530,248.698090 145.665436,278.775360 146.969879,281.547363 C 146.969879,281.547363 154.893707,299.059387 167.970856,299.835480 C 180.751862,300.593994 167.970856,299.835480 167.970856,299.835480 C 167.970856,299.835480 168.129578,305.480011 168.129578,305.480011 C 168.129578,305.480011 145.144928,302.533020 140.705597,276.045410 C 140.705597,276.045410 137.201721,251.982697 137.201721,251.982697 C 137.201721,251.982697 134.481110,220.138062 160.871185,228.234802 C 186.580475,236.122681 160.871185,228.234802 160.871185,228.234802 C 160.871185,228.234802 162.127869,234.207275 162.127869,234.207275 " />
  <path
     id="Shape 4"
     style="stroke: none; fill: rgb(59, 67, 79)"
     fill-rule="nonzero"
     d="M 155.468323,275.994812 C 155.468323,275.994812 154.339172,276.848145 153.369171,276.848145 C 152.399170,276.848145 151.283783,275.994812 151.283783,275.994812 C 151.283783,275.994812 149.201569,255.012024 149.201569,255.012024 C 149.201569,255.012024 152.074493,244.678558 164.265381,250.139496 C 164.265381,250.139496 164.553558,256.139221 164.553558,256.139221 C 164.553558,256.139221 153.857910,252.346008 154.079071,257.069427 C 154.291962,261.615967 155.468323,275.994812 155.468323,275.994812 Z" />
  <path
     id="Shape 11 copy_1"
     style="stroke: none; fill: rgb(247, 251, 251)"
     fill-rule="nonzero"
     d="M 357.813416,233.362122 C 357.825256,233.362793 358.865631,232.536163 360.830170,231.920715 C 361.812073,231.613678 363.032379,231.361115 364.423309,231.298828 C 364.770660,231.283295 365.128174,231.279602 365.494019,231.289948 C 365.859833,231.300262 366.233978,231.324615 366.614319,231.365021 C 367.374847,231.445862 368.160370,231.591156 368.950806,231.817383 C 372.115753,232.722351 375.344391,234.922607 377.240570,239.463959 C 378.192413,241.734741 378.820343,244.591064 378.986328,248.164856 C 379.027863,249.058319 379.040558,249.996613 379.022369,250.981812 C 379.004120,251.967010 378.954956,252.999115 378.872833,254.080200 C 378.708710,256.242279 378.412292,258.600311 377.970673,261.169769 C 377.980347,261.167236 378.382568,268.934509 375.591705,277.859589 C 372.968048,286.585632 366.667725,297.304779 355.035187,300.367889 C 356.373047,278.203552 356.414612,255.623779 357.813416,233.362122 C 357.813416,233.362122 357.813416,233.362122 357.813416,233.362122 Z" />
  <path
     id="Shape 3_1"
     style="stroke: none; fill: rgb(59, 67, 79)"
     fill-rule="nonzero"
     d="M 355.482605,234.255676 C 355.482605,234.255676 375.747375,228.008240 375.034210,248.736633 C 375.034210,248.736633 372.017151,278.793488 370.706970,281.563599 C 370.706970,281.563599 362.748444,299.063751 349.614044,299.839325 C 336.777039,300.597321 349.614044,299.839325 349.614044,299.839325 C 349.614044,299.839325 349.454620,305.480011 349.454620,305.480011 C 349.454620,305.480011 372.539917,302.535034 376.998688,276.065399 C 376.998688,276.065399 380.517914,252.019012 380.517914,252.019012 C 380.517914,252.019012 383.250458,220.195984 356.744781,228.287231 C 330.922913,236.169769 356.744781,228.287231 356.744781,228.287231 C 356.744781,228.287231 355.482605,234.255676 355.482605,234.255676 " />
  <path
     id="Shape 4_1"
     style="stroke: none; fill: rgb(59, 67, 79)"
     fill-rule="nonzero"
     d="M 362.171326,276.014832 C 362.171326,276.014832 363.305420,276.867584 364.279663,276.867584 C 365.253906,276.867584 366.374176,276.014832 366.374176,276.014832 C 366.374176,276.014832 368.465515,255.046295 368.465515,255.046295 C 368.465515,255.046295 365.580017,244.719849 353.335724,250.177063 C 353.335724,250.177063 353.046295,256.172729 353.046295,256.172729 C 353.046295,256.172729 363.788788,252.382080 363.566650,257.102295 C 363.352844,261.645752 362.171326,276.014832 362.171326,276.014832 Z" />
  <path
     id="new_vector_shape_done"
     style="stroke: none; fill: rgb(59, 67, 79)"
     fill-rule="evenodd"
     d="M 266.893341,274.333344 C 267.391052,274.333344 267.888947,274.333344 268.386658,274.333344 C 271.474121,278.526306 272.730225,284.969757 274.359985,290.546661 C 274.865051,292.274963 274.375061,295.297974 273.933319,296.519989 C 272.315552,300.995514 267.235687,300.915192 263.053345,302.919983 C 261.930115,303.458435 261.094604,304.387817 259.640015,304.626678 C 258.691711,303.791351 257.546722,303.627289 257.079987,302.279999 C 255.927673,300.693268 257.412811,299.702393 258.573334,299.079987 C 260.679565,297.950409 267.181488,296.837097 267.959991,294.813324 C 268.923218,293.717590 268.282745,290.423157 267.959991,289.266663 C 267.133392,286.304504 266.736633,283.831543 265.613342,281.160004 C 264.867188,279.385498 263.557159,277.514496 264.333344,275.399994 C 264.976532,275.123810 266.366638,274.809784 266.893341,274.333344 Z" />
  <path
     id="Rounded Rectangle 13 copy 4"
     style="stroke:none;fill:#ffffff"
     fill-rule="evenodd"
     d="M 401.261932,505.586670 C 401.261932,505.586670 116.745544,505.586670 116.745544,505.586670 C 116.745544,505.586670 111.227661,505.586670 111.227661,505.586670 C 111.227661,505.586670 112.605011,482.056854 112.605011,482.056854 C 115.294312,436.114624 151.491882,401.053345 192.915009,401.053345 C 192.915009,401.053345 221.398651,401.053345 221.398651,401.053345 C 219.550812,402.581665 218.196655,404.166901 217.222778,405.746674 C 217.222778,405.746674 195.429718,405.746674 195.429718,405.746674 C 155.506348,405.746674 120.619324,439.495087 118.027374,483.717010 C 118.027374,483.717010 117.070648,500.040009 117.070648,500.040009 C 117.070648,500.040009 400.510162,500.040009 400.510162,500.040009 C 400.510162,500.040009 399.980103,483.717010 399.980103,483.717010 C 397.388153,439.495087 362.501129,405.746674 322.577728,405.746674 C 322.577728,405.746674 300.766113,405.746674 300.766113,405.746674 C 299.932007,404.178528 298.745941,402.593414 297.090027,401.053345 C 297.090027,401.053345 324.839417,401.053345 324.839417,401.053345 C 366.262543,401.053345 402.460114,436.114624 405.149414,482.056854 C 405.149414,482.056854 406.526764,505.586670 406.526764,505.586670 C 406.526764,505.586670 401.261932,505.586670 401.261932,505.586670 Z M 288.650421,405.746674 C 288.650421,405.746674 287.160004,405.746674 287.160004,405.746674 C 287.160004,405.746674 287.160004,401.053345 287.160004,401.053345 C 287.160004,401.053345 288.816010,401.053345 288.816010,401.053345 C 288.717010,402.273132 288.653381,403.810577 288.650421,405.746674 Z M 228.639282,401.053345 C 228.639282,401.053345 230.413330,401.053345 230.413330,401.053345 C 230.413330,401.053345 230.413330,405.746674 230.413330,405.746674 C 230.413330,405.746674 228.880066,405.746674 228.880066,405.746674 C 228.857147,403.753540 228.765808,402.224060 228.639282,401.053345 Z" />
  <path
     style="fill:#4d4d4d;fill-rule:nonzero;stroke:none"
     d="m 269.82733,97.325742 c -5.32865,0.07989 -10.94587,0.504444 -16.84375,1.3125 C 158.61746,111.56711 136.46317,145.85452 152.95233,223.88824 l 0.8125,0.84375 c 0,0 2.27694,-4.30954 6.71875,-9.75 -14.95836,-71.16627 5.38925,-102.4706 91.59375,-114.28125 86.33241,-11.828211 104.36092,66.32973 106.71875,84.28125 2.35783,17.9515 -30.125,13.90625 -30.125,13.90625 -11.38525,-2.57764 -19.54095,-7.19822 -25.375,-12.375 6.38726,7.88009 16.718,15.6905 33.40625,19.46875 0,0 35.51474,4.40325 32.9375,-15.21875 -2.41616,-18.39563 -19.88272,-94.635803 -99.8125,-93.437498 z m 18.9375,63.031248 c 0,0 -18.0644,15.16711 -37.09375,19.375 -23.95378,5.29683 -31.71875,24.09375 -31.71875,24.09375 -7.09526,-8.12922 -8.40625,-15.6875 -8.40625,-15.6875 -23.00363,-3.68166 -38.31404,11.31408 -45.5,20.75 9.19698,-8.92803 23.49541,-17.72289 42.65625,-14.65625 0,0 1.43198,8.27056 9.1875,17.15625 0,0 8.47342,-20.55402 34.65625,-26.34375 16.05389,-3.54994 31.35856,-14.18243 37.5625,-18.875 -1.08173,-3.48541 -1.34375,-5.8125 -1.34375,-5.8125 z"
     id="path3012"
     inkscape:connector-curvature="0" />
  <path
     d="m 404.89319,503.14567 c 0,0 -284.51639,0 -284.51639,0 0,0 -5.51788,0 -5.51788,0 0,0 1.37735,-23.52982 1.37735,-23.52982 2.6893,-45.94223 38.88687,-81.00351 80.31,-81.00351 0,0 28.48364,0 28.48364,0 -1.84784,1.52832 -3.202,3.11356 -4.17587,4.69333 0,0 -21.79306,0 -21.79306,0 -39.92337,0 -74.8104,33.74842 -77.40235,77.97034 0,0 -0.95672,16.323 -0.95672,16.323 0,0 283.43951,0 283.43951,0 0,0 -0.53006,-16.323 -0.53006,-16.323 -2.59195,-44.22192 -37.47897,-77.97034 -77.40237,-77.97034 0,0 -21.81162,0 -21.81162,0 -0.8341,-1.56814 -2.02017,-3.15326 -3.67608,-4.69333 0,0 27.74939,0 27.74939,0 41.42312,0 77.62069,35.06128 80.30999,81.00351 0,0 1.37735,23.52982 1.37735,23.52982 0,0 -5.26483,0 -5.26483,0 z m -112.61151,-99.84 c 0,0 -1.49042,0 -1.49042,0 0,0 0,-4.69333 0,-4.69333 0,0 1.65601,0 1.65601,0 -0.099,1.21979 -0.16263,2.75724 -0.16559,4.69333 z m -60.01114,-4.69333 c 0,0 1.77405,0 1.77405,0 0,0 0,4.69333 0,4.69333 0,0 -1.53326,0 -1.53326,0 -0.0229,-1.99313 -0.11426,-3.52261 -0.24079,-4.69333 z"
     style="fill:#3b434f;fill-rule:evenodd;stroke:none"
     id="path3180"
     inkscape:connector-curvature="0" />
  <path
     inkscape:connector-curvature="0"
     id="body-bg-flat"
     style="fill:#ffffff;fill-rule:nonzero;stroke:none"
     d="m 642.64821,468.84948 c 0,0 -10.30188,-90.31113 78.44,-100.38666 0,0 37.97333,0 37.97333,0 0,0 0,-17.49334 0,-17.49334 0,0 26.71167,11.47332 53.76001,1.27999 0,0 0.85333,16.21335 0.85333,16.21335 0,0 44.37332,0 44.37332,0 0,0 77.27347,7.71427 72.60001,100.38666 0,0 -288,0 -288,0 z" />
  <path
     inkscape:connector-curvature="0"
     id="Rounded Rectangle 13 copy 3"
     style="fill:#3b434f;fill-rule:nonzero;stroke:none"
     d="m 929.91014,470.43615 c 0,0 0,0 0,0 0,0 -284.51639,0 -284.51639,0 0,0 0,0 0,0 0,0 -5.51788,0 -5.51788,0 0,0 1.37735,-23.52982 1.37735,-23.52982 2.6893,-45.94223 38.88687,-81.00351 80.31,-81.00351 0,0 37.49832,0 37.49832,0 0,0 0,4.69333 0,4.69333 0,0 -34.98361,0 -34.98361,0 -39.92337,0 -74.8104,33.74842 -77.40235,77.97034 0,0 -0.95672,16.323 -0.95672,16.323 0,0 283.43951,0 283.43951,0 0,0 -0.53006,-16.323 -0.53006,-16.323 -2.59195,-44.22192 -37.47897,-77.97034 -77.40237,-77.97034 0,0 -35.41773,0 -35.41773,0 0,0 0,-4.69333 0,-4.69333 0,0 37.67942,0 37.67942,0 41.42312,0 77.62069,35.06128 80.30999,81.00351 0,0 1.37735,23.52982 1.37735,23.52982 0,0 -5.26483,0 -5.26483,0 z" />
  <path
     inkscape:connector-curvature="0"
     id="neck copy 7"
     style="fill:#3b434f;fill-rule:nonzero;stroke:none"
     d="m 762.0482,348.99557 c 0,0 0,26.31509 0,26.31509 0,13.65549 11.07947,24.7255 24.74668,24.7255 13.6672,0 24.74667,-11.07001 24.74667,-24.7255 0,0 0,-25.77219 0,-25.77219 1.43616,-0.43713 2.8588,-0.91192 4.26666,-1.42486 0,0 0,27.37616 0,27.37616 0,16.14862 -13.0852,29.23971 -29.22665,29.23971 -16.14145,0 -29.22669,-13.09109 -29.22669,-29.23971 0,0 0,-28.18662 0,-28.18662 1.54584,0.61124 3.11155,1.17344 4.69333,1.69242 z" />
  <path
     inkscape:connector-curvature="0"
     id="Rounded Rectangle 2"
     style="fill:#3b434f;fill-rule:nonzero;stroke:none"
     d="m 863.36815,422.33883 c 0,0 -12.08536,25.20691 -12.08536,25.20691 -0.61123,1.2749 -2.14026,1.8129 -3.41513,1.20166 -1.2749,-0.61124 -1.81289,-2.14026 -1.20166,-3.41516 0,0 11.67203,-24.34476 11.67203,-24.34476 0,0 -9.12018,-15.7966 -9.12018,-15.7966 -0.70691,-1.22443 -0.28741,-2.7901 0.93701,-3.49701 1.22446,-0.70694 2.7901,-0.28741 3.49704,0.93701 0,0 9.81333,16.99719 9.81333,16.99719 0.5057,0.87589 0.43237,1.9249 -0.0971,2.71076 z" />
  <path
     inkscape:connector-curvature="0"
     id="Rounded Rectangle 2 copy 3"
     style="fill:#3b434f;fill-rule:nonzero;stroke:none"
     d="m 710.01061,422.36343 c 0,0 12.1502,25.28451 12.1502,25.28451 0.61451,1.27884 2.15174,1.81848 3.43344,1.20535 1.28174,-0.61312 1.82264,-2.14685 1.2081,-3.42565 0,0 -11.73462,-24.41971 -11.73462,-24.41971 0,0 9.1691,-15.84525 9.1691,-15.84525 0.7107,-1.22818 0.28894,-2.79867 -0.94204,-3.50778 -1.23102,-0.70911 -2.80506,-0.2883 -3.51578,0.93991 0,0 -9.86597,17.04953 -9.86597,17.04953 -0.50842,0.87857 -0.43472,1.93082 0.0976,2.71909 z" />
  <path
     inkscape:connector-curvature="0"
     id="Rectangle 24"
     style="fill:#3b434f;fill-rule:nonzero;stroke:none"
     d="m 757.35487,365.04949 c 0,0 4.69333,0 4.69333,0 0,0 0,103.67999 0,103.67999 0,0 -4.69333,0 -4.69333,0 0,0 0,-103.67999 0,-103.67999 z" />
  <path
     inkscape:connector-curvature="0"
     id="Rectangle 24 copy"
     style="fill:#3b434f;fill-rule:nonzero;stroke:none"
     d="m 811.54155,365.90282 c 0,0 4.69333,0 4.69333,0 0,0 0,103.68 0,103.68 0,0 -4.69333,0 -4.69333,0 0,0 0,-103.68 0,-103.68 z" />
  <path
     inkscape:connector-curvature="0"
     id="2 copy 5-6"
     style="fill:#ffffff;fill-rule:nonzero;stroke:none"
     d="m 787.86287,81.316124 c 53.07788,0 94.97229,49.601226 93.61008,109.198306 0,0 -1.44782,63.34115 -1.44782,63.34115 -1.28332,56.14637 -42.53149,100.52722 -92.16226,100.52722 -49.63077,0 -90.87894,-44.38085 -92.16226,-100.52722 0,0 -1.44782,-63.34115 -1.44782,-63.34115 -1.36218,-59.59708 40.5322,-109.198306 93.61008,-109.198306 z" />
  <path
     inkscape:connector-curvature="0"
     id="2 line-3"
     style="fill:#3b434f;fill-rule:evenodd;stroke:none"
     d="m 885.7376,188.55062 c 0,0 -1.51706,65.91437 -1.51706,65.91437 -1.3447,58.42731 -44.56604,104.61114 -96.57093,104.61114 -52.00491,0 -95.22622,-46.18383 -96.57095,-104.61114 0,0 -1.51709,-65.91437 -1.51709,-65.91437 -1.42734,-62.01822 42.47113,-113.634486 98.08804,-113.634486 55.61692,0 99.51535,51.616266 98.08799,113.634486 z M 787.43651,81.742794 c -52.35227,0 -93.67392,49.213706 -92.33038,108.345176 0,0 1.42804,62.84632 1.42804,62.84632 1.26577,55.7077 41.95007,99.74185 90.90234,99.74185 48.95227,0 89.63653,-44.03415 90.90231,-99.74185 0,0 1.42801,-62.84632 1.42801,-62.84632 1.3436,-59.13147 -39.97806,-108.345176 -92.33032,-108.345176 z" />
  <path
     inkscape:connector-curvature="0"
     id="1 copy 4"
     style="opacity:0.05882401;fill:#3b434f;fill-rule:evenodd;stroke:none"
     d="m 883.07488,199.5028 c 0,0 -4.26667,69.97336 -4.26667,69.97336 0,0 -18.95022,80.77093 -92.16,90.33468 0,0 0,0.11863 0,0.11863 -0.14389,-0.0176 -0.2832,-0.0412 -0.42667,-0.0593 -0.14346,0.0181 -0.28277,0.0417 -0.42666,0.0593 0,0 0,-0.11863 0,-0.11863 -73.20975,-9.56375 -92.16001,-90.33468 -92.16001,-90.33468 0,0 -4.26666,-69.97336 -4.26666,-69.97336 18.99777,84.32669 34.98666,89.60004 34.98666,89.60004 -3.23556,-25.57114 23.04001,-23.04001 23.04001,-23.04001 16.01413,2.70508 28.76248,4.01227 38.82666,4.50097 10.06421,-0.4887 22.81253,-1.79589 38.82666,-4.50097 0,0 26.27555,-2.53113 23.04001,23.04001 0,0 15.98889,-5.27335 34.98667,-89.60004 z m -47.44358,98.27307 c -1.24203,-15.04162 -10.31222,-13.76617 -10.31222,-13.76617 -16.12464,4.74463 -28.78214,7.38043 -38.67087,8.72003 0,0 0,-0.0983 0,-0.0983 -9.81949,-1.32867 -22.38834,-3.94284 -38.39999,-8.64859 0,0 -9.00669,-1.26501 -10.24003,13.65335 0,0 -3.61666,14.94666 8.53336,21.33332 0,0 15.35999,16.21334 15.35999,16.21334 0,0 10.49667,3.32666 10.24002,-9.38668 0,0 -1.06836,-9.48166 5.11999,-11.09333 0,0 9.38666,0 9.38666,0 0,0 0,0.28076 0,0.28076 0,0 9.45288,0 9.45288,0 6.23199,1.625 5.15613,11.18503 5.15613,11.18503 -0.25849,12.81842 10.31219,9.46424 10.31219,9.46424 0,0 15.46836,-16.34733 15.46836,-16.34733 12.23571,-6.43945 8.59353,-21.50964 8.59353,-21.50964 z" />
  <path
     inkscape:connector-curvature="0"
     id="Rounded Rectangle 3"
     style="fill:#3b434f;fill-rule:nonzero;stroke:none"
     d="m 777.40822,320.67617 c 0,0 20.47998,0 20.47998,0 0.9426,0 1.70667,0.76407 1.70667,1.70663 0,0.9426 -0.76407,1.70667 -1.70667,1.70667 0,0 -20.47998,0 -20.47998,0 -0.9426,0 -1.70667,-0.76407 -1.70667,-1.70667 0,-0.94256 0.76407,-1.70663 1.70667,-1.70663 z" />
  <path
     inkscape:connector-curvature="0"
     id="2"
     style="fill:#3b434f;fill-rule:nonzero;stroke:none"
     d="m 759.48637,300.25594 c 0,0 2.3765,-3.3266 2.3765,-3.3266 7.6402,4.37015 16.71713,6.90369 26.45526,6.90369 9.84662,0 19.0166,-2.59122 26.70947,-7.05139 0,0 2.48822,3.43606 2.48822,3.43606 -8.36868,4.84464 -18.34057,7.65848 -29.04721,7.65848 -10.67874,0 -20.62698,-2.7987 -28.98224,-7.62024 z" />
  <path
     inkscape:connector-curvature="0"
     id="Shape 11 copy-9"
     style="fill:#f7fbfb;fill-rule:nonzero;stroke:none"
     d="m 689.45543,198.16262 c -0.0118,6.7e-4 -1.04761,-0.82654 -3.0036,-1.44238 -0.9776,-0.30725 -2.1926,-0.56 -3.57745,-0.62232 -0.34586,-0.0156 -0.70182,-0.0192 -1.06604,-0.009 -0.36423,0.0103 -0.73676,0.0347 -1.11542,0.0751 -0.75723,0.0809 -1.53931,0.22628 -2.3263,0.45266 -3.15115,0.90558 -6.36572,3.10733 -8.25363,7.65177 -0.94769,2.27234 -1.57287,5.13061 -1.73816,8.70682 -0.0413,0.89407 -0.054,1.833 -0.0359,2.81887 0.0182,0.98587 0.0671,2.01868 0.14887,3.1005 0.16342,2.16354 0.45853,4.52316 0.89822,7.09439 -0.01,-0.003 -0.41009,7.76999 2.36859,16.70114 2.61225,8.73196 8.88508,19.4584 20.46689,22.52359 -1.33203,-22.17938 -1.37341,-44.77451 -2.76611,-67.05127 0,0 0,0 0,0 z" />
  <path
     inkscape:connector-curvature="0"
     id="Shape 3-4"
     style="fill:#3b434f;fill-rule:nonzero;stroke:none"
     d="m 690.77608,199.05675 c 0,0 -20.17639,-6.25167 -19.46634,14.49082 0,0 3.00391,30.07727 4.30835,32.84927 0,0 7.92383,17.51203 21.00098,18.28812 12.781,0.75851 0,0 0,0 0,0 0.15872,5.64453 0.15872,5.64453 0,0 -22.98465,-2.94699 -27.42398,-29.4346 0,0 -3.50388,-24.06271 -3.50388,-24.06271 0,0 -2.72061,-31.84464 23.66946,-23.7479 25.70929,7.88788 0,0 0,0 0,0 1.25669,5.97247 1.25669,5.97247" />
  <path
     inkscape:connector-curvature="0"
     id="Shape 4-6"
     style="fill:#3b434f;fill-rule:nonzero;stroke:none"
     d="m 684.11653,240.84429 c 0,0 -1.12915,0.85333 -2.09915,0.85333 -0.97,0 -2.08539,-0.85333 -2.08539,-0.85333 0,0 -2.08221,-20.98279 -2.08221,-20.98279 0,0 2.87292,-10.33346 15.06381,-4.87252 0,0 0.28818,5.99972 0.28818,5.99972 0,0 -10.69565,-3.79321 -10.47449,0.93021 0.21289,4.54654 1.38925,18.92538 1.38925,18.92538 z" />
  <path
     inkscape:connector-curvature="0"
     id="Shape 11 copy_1-5"
     style="fill:#f7fbfb;fill-rule:nonzero;stroke:none"
     d="m 885.46163,198.2116 c 0.0118,6.7e-4 1.05221,-0.82596 3.01675,-1.44141 0.9819,-0.30703 2.20221,-0.5596 3.59314,-0.62188 0.34735,-0.0155 0.70486,-0.0192 1.07071,-0.009 0.36581,0.0103 0.73996,0.0347 1.1203,0.0751 0.76053,0.0808 1.54605,0.22614 2.33649,0.45236 3.16494,0.90497 6.39358,3.10523 8.28976,7.64658 0.95184,2.27078 1.57977,5.1271 1.74576,8.7009 0.0415,0.89346 0.0542,1.83175 0.036,2.81695 -0.0183,0.9852 -0.0674,2.0173 -0.14954,3.09839 -0.16412,2.16208 -0.46054,4.52011 -0.90216,7.08957 0.01,-0.003 0.4119,7.76474 -2.37897,16.68982 -2.62365,8.72604 -8.92397,19.44519 -20.55651,22.5083 1.33786,-22.16434 1.37942,-44.74411 2.77823,-67.00577 0,0 0,0 0,0 z" />
  <path
     inkscape:connector-curvature="0"
     id="Shape 3_1-8"
     style="fill:#3b434f;fill-rule:nonzero;stroke:none"
     d="m 884.13081,199.10516 c 0,0 20.26477,-6.24744 19.55161,14.48095 0,0 -3.01706,30.05686 -4.32724,32.82697 0,0 -7.95853,17.50015 -21.09293,18.27572 -12.837,0.758 0,0 0,0 0,0 -0.15942,5.64069 -0.15942,5.64069 0,0 23.0853,-2.94498 27.54407,-29.41461 0,0 3.51922,-24.04639 3.51922,-24.04639 0,0 2.73255,-31.82303 -23.77313,-23.73178 -25.82187,7.88254 0,0 0,0 0,0 -1.26218,5.96845 -1.26218,5.96845" />
  <path
     inkscape:connector-curvature="0"
     id="Shape 4_1-4"
     style="fill:#3b434f;fill-rule:nonzero;stroke:none"
     d="m 890.81954,240.86431 c 0,0 1.13409,0.85275 2.10833,0.85275 0.97425,0 2.09452,-0.85275 2.09452,-0.85275 0,0 2.09133,-20.96854 2.09133,-20.96854 0,0 -2.88549,-10.32644 -15.12979,-4.86923 0,0 -0.28943,5.99567 -0.28943,5.99567 0,0 10.7425,-3.79065 10.52036,0.92957 -0.21381,4.54345 -1.39532,18.91253 -1.39532,18.91253 z" />
  <path
     inkscape:connector-curvature="0"
     id="new_vector_shape_done-4"
     style="fill:#3b434f;fill-rule:evenodd;stroke:none"
     d="m 795.54155,239.18282 c 0.49771,0 0.99561,0 1.49332,0 3.08746,4.19297 4.34357,10.63642 5.97332,16.21332 0.50507,1.7283 0.0151,4.75131 -0.42666,5.97333 -1.61777,4.47552 -6.69763,4.3952 -10.87998,6.39999 -1.12323,0.53845 -1.95874,1.46784 -3.41333,1.7067 -0.9483,-0.83533 -2.09329,-0.99939 -2.56002,-2.34668 -1.15232,-1.58673 0.33282,-2.57761 1.49334,-3.20001 2.10624,-1.12958 8.60816,-2.24289 9.38666,-4.26667 0.96323,-1.09573 0.32275,-4.39016 0,-5.54666 -0.8266,-2.96216 -1.22336,-5.43512 -2.34665,-8.10666 -0.74615,-1.7745 -2.05618,-3.6455 -1.28,-5.76001 0.64319,-0.27618 2.0333,-0.59021 2.56,-1.06665 z" />
  <path
     inkscape:connector-curvature="0"
     id="eye"
     style="fill:#3b434f;fill-rule:nonzero;stroke:none"
     d="m 740.71489,202.91616 c 4.71283,0 8.53333,3.8205 8.53333,8.53333 0,4.71283 -3.8205,8.53332 -8.53333,8.53332 -4.71283,0 -8.53336,-3.82049 -8.53336,-8.53332 0,-4.71283 3.82053,-8.53333 8.53336,-8.53333 z" />
  <path
     inkscape:connector-curvature="0"
     id="eye_1"
     style="fill:#3b434f;fill-rule:nonzero;stroke:none"
     d="m 835.43486,202.91616 c 4.71283,0 8.53333,3.8205 8.53333,8.53333 0,4.71283 -3.8205,8.53332 -8.53333,8.53332 -4.7128,0 -8.53332,-3.82049 -8.53332,-8.53332 0,-4.71283 3.82052,-8.53333 8.53332,-8.53333 z" />
  <path
     inkscape:connector-curvature="0"
     id="Ellipse 3"
     style="fill:#edf1f1;fill-rule:nonzero;stroke:none"
     d="m 839.27489,234.48949 c 5.89102,0 10.66666,4.77564 10.66666,10.66666 0,5.89102 -4.77564,10.66666 -10.66666,10.66666 -5.89105,0 -10.66666,-4.77564 -10.66666,-10.66666 0,-5.89102 4.77561,-10.66666 10.66666,-10.66666 z" />
  <path
     inkscape:connector-curvature="0"
     id="Ellipse 3 copy-9"
     style="fill:#edf1f1;fill-rule:nonzero;stroke:none"
     d="m 736.02156,234.48949 c 5.89102,0 10.66666,4.77564 10.66666,10.66666 0,5.89102 -4.77564,10.66666 -10.66666,10.66666 -5.89105,0 -10.66665,-4.77564 -10.66665,-10.66666 0,-5.89102 4.7756,-10.66666 10.66665,-10.66666 z" />
  <path
     inkscape:connector-curvature="0"
     id="Shape 1 copy 5"
     style="fill:#3b434f;fill-rule:evenodd;stroke:none"
     d="m 345.79511,238.62597 c 0,0 0,31.57333 0,31.57333 0,7.71573 -7.52643,19.75546 -19.79049,20.44495 -1.80161,-0.0859 -38.23618,0.0351 -38.23618,0.0351 -16.37833,0 -19.62668,-19.62668 -19.62668,-19.62668 0,0 0,-21.33331 0,-21.33331 0,0 -15.35998,0 -15.35998,0 0,0 0,21.33331 0,21.33331 0,0 -3.24836,19.62668 -19.62668,19.62668 0,0 -36.43457,-0.12097 -38.23618,-0.0351 -12.26407,-0.68949 -19.79049,-12.72922 -19.79049,-20.44495 0,0 0,-31.57333 0,-31.57333 0,0 -13.65332,0 -13.65332,0 0,0 0,-8.53333 0,-8.53333 0,0 79.35998,0 79.35998,0 0,0 11.94669,1.92999 11.94669,10.23999 0,0 15.35998,0 15.35998,0 0,-8.31 11.94669,-10.23999 11.94669,-10.23999 0,0 79.35998,0 79.35998,0 0,0 0,8.53333 0,8.53333 0,0 -13.65332,0 -13.65332,0 z m -101.54669,4.26666 c 0,-3.04166 -3.41333,-3.41333 -3.41333,-3.41333 0,0 -57.17331,0 -57.17331,0 0,0 0,29.86667 0,29.86667 0,9.30585 12.79999,12.80002 12.79999,12.80002 0,0 34.98666,0 34.98666,0 12.03751,0 12.79999,-12.80002 12.79999,-12.80002 0,0 0,-23.41165 0,-26.45334 z m 93.01334,-3.41333 c 0,0 -57.17331,0 -57.17331,0 0,0 -3.41333,0.37167 -3.41333,3.41333 0,3.04169 0,26.45334 0,26.45334 0,0 0.76248,12.80002 12.79999,12.80002 0,0 34.98666,0 34.98666,0 0,0 12.79999,-3.49417 12.79999,-12.80002 0,0 0,-29.86667 0,-29.86667 z m -11.94666,51.20001 c 0.23264,-0.005 0.46015,-0.0222 0.68952,-0.0351 0.19287,0.009 -8.9e-4,0.0207 -0.68952,0.0351 z m -130.39618,-0.0351 c 0.22937,0.0129 0.45688,0.0302 0.68952,0.0351 -0.68863,-0.0143 -0.88239,-0.0258 -0.68952,-0.0351 z" />
  <path
     inkscape:connector-curvature="0"
     id="Shape 6 copy 3"
     style="fill:#9ea0a4;fill-rule:nonzero;stroke:none"
     d="m 692.39916,194.38284 c 0,0 3.29214,-51.3967 35.0097,-74.24002 0,0 45.79684,31.15331 117.83765,0 0,0 31.86432,14.51333 36.71753,74.24002 0,0 1.71057,0 1.71057,0 0,0 9.1232,-68.41337 -14.51904,-95.573366 0,0 -5.82383,-20.79999 -36.7175,-35.839995 0,0 -11.10065,6.826695 -11.10065,6.826695 0,0 -7.45825,-9.126713 -27.32468,-20.480015 0,0 -14.69302,6.546661 -22.20129,17.919985 0,0 -11.95453,-7.679995 -11.95453,-7.679995 0,0 -16.70435,7.646665 -26.47076,21.333345 0,0 -17.93183,2.55997 -17.93183,2.55997 0,0 -9.39285,17.066676 -9.39285,17.066676 0,0 -22.42093,18.06332 -15.37293,92.16 0,0 1.71061,1.7067 1.71061,1.7067 z" />
  <path
     inkscape:connector-curvature="0"
     id="Shape 6 copy"
     style="fill:#3b434f;fill-rule:evenodd;stroke:none"
     d="m 887.08794,194.38284 c 0,0 -8.11057,-0.42667 -8.11057,-0.42667 -4.85321,-59.72669 -33.73086,-70.40003 -33.73086,-70.40003 -72.04081,31.15332 -117.83765,-0.42666 -117.83765,-0.42666 -27.70312,23.63333 -32.02304,71.68002 -32.02304,71.68002 0,0 -7.25726,-2.13336 -7.25726,-2.13336 -7.04801,-74.09668 15.37292,-93.439996 15.37292,-93.439996 0,0 10.24619,-18.77335 10.24619,-18.77335 0,0 18.78515,-2.55997 18.78515,-2.55997 9.76642,-13.686671 27.75077,-22.186671 27.75077,-22.186671 0,0 11.1513,7.253326 11.1513,7.253326 7.50827,-11.373321 23.03998,-17.06665 23.03998,-17.06665 19.86642,11.353302 27.30667,20.053315 27.30667,20.053315 0,0 11.50986,-6.399995 11.50986,-6.399995 30.89367,15.040005 39.27749,38.826655 39.27749,38.826655 23.64225,27.160006 14.51905,96.000036 14.51905,96.000036 z m -20.07971,-94.29337 c 0,0 -3.66636,-18.666656 -34.56003,-33.706656 0,0 -11.51999,6.82665 -11.51999,6.82665 0,0 -7.44025,-9.126673 -27.30667,-20.479975 0,0 -13.39838,6.973328 -20.90665,18.346645 0,0 -12.80002,-8.106655 -12.80002,-8.106655 0,0 -15.40692,7.220005 -25.17334,20.906675 0,0 -17.06665,2.56 -17.06665,2.56 0,0 -8.95999,16.213316 -8.95999,16.213316 0,0 -18.61023,14.21444 -16.64001,71.68002 0,0 0.42666,-0.42667 0.42666,-0.42667 0,0 5.92087,-35.72113 34.90732,-57.6 0,0 47.07684,32.00665 119.11765,0.85333 0,0 26.61517,12.51663 35.8417,57.17334 0,0 5.47669,-45.93112 -15.35998,-74.24002 z" />
  <path
     inkscape:connector-curvature="0"
     id="Shape 34"
     style="fill:#3b434f;fill-rule:nonzero;stroke:none"
     d="m 774.64821,415.84948 c 0,0 12,-13 12,-13 0,0 13,13 13,13 0,0 -7,7 -7,7 0,0 11,45 11,45 0,0 -34,0 -34,0 0,0 12,-45 12,-45 0,0 -7,-7 -7,-7 z" />
  <path
     inkscape:connector-curvature="0"
     id="Rectangle 24 copy 4"
     style="fill:#3b434f;fill-rule:evenodd;stroke:none"
     d="m 801.34749,468.53915 c 0,0 -12.09396,-45.13526 -12.09396,-45.13526 0,0 2.51468,-0.75442 2.51468,-0.75442 0,0 1.66738,-1.77158 1.66738,-1.77158 0,0 12.79123,47.73749 12.79123,47.73749 0,0 -4.87933,-0.0762 -4.87933,-0.0762 z m -34.11429,-0.53302 c 0,0 12.62613,-46.90903 12.62613,-46.90903 0,0 0.81555,0.69904 0.81555,0.69904 0,0 2.56,1.70666 2.56,1.70666 0,0 0.84405,0.0844 0.84405,0.0844 0,0 -11.97631,44.495 -11.97631,44.495 0,0 -4.86942,-0.0761 -4.86942,-0.0761 z" />
  <path
     inkscape:connector-curvature="0"
     id="Ellipse 6"
     style="fill:#3b434f;fill-rule:evenodd;stroke:none"
     d="m 815.79378,428.63723 c 0,0 -3.3187,3.31869 -3.3187,3.31869 0,0 -12.91326,-12.91326 -12.91326,-12.91326 -2.49192,3.95782 -6.89118,6.59347 -11.91361,6.59347 -5.22537,0 -9.77585,-2.85269 -12.20493,-7.07992 0,0 -13.4797,13.47973 -13.4797,13.47973 0,0 -3.32761,-3.3276 -3.32761,-3.3276 0,0 26.53885,-26.53885 26.53885,-26.53885 0,0 2.07559,-1.92444 2.07559,-1.92444 0,0 2.07559,1.92444 2.07559,1.92444 0,0 26.46778,26.46774 26.46778,26.46774 z m -37.74002,-12.6915 c 1.70147,3.46442 5.26062,5.85041 9.3811,5.85041 4.02783,0 7.51422,-2.28321 9.25891,-5.62153 0,0 -9.43445,-9.43444 -9.43445,-9.43444 0,0 -9.20556,9.20556 -9.20556,9.20556 z" />
  <path
     inkscape:connector-curvature="0"
     id="new_vector_shape_done copy"
     style="opacity:0.2;fill:#3b434f;fill-rule:evenodd;stroke:none"
     d="m 788.78734,68.522484 c 0.62775,0.46698 0.31699,0.89911 0.18066,1.48304 -0.20337,0.87115 -0.44464,1.73343 -0.58053,2.60272 -0.20597,1.31723 -0.39374,2.63601 -0.44763,3.93558 -0.0453,1.09277 -0.0257,2.18194 -0.007,3.26413 0.011,0.62494 0.11792,1.2488 0.1333,1.87475 0.006,0.24973 0.0742,0.50019 0.0812,0.75433 0.0153,0.069 0.0306,0.13798 0.046,0.20691 0.009,0.31943 0.0926,0.62412 0.10147,0.94294 0.0521,0.28866 0.10425,0.57739 0.15634,0.86605 0.0767,0.45746 0.11392,0.935 0.25385,1.38062 0.0154,0.1141 0.0307,0.22827 0.0461,0.34238 0.11102,0.35412 0.14737,0.71963 0.25909,1.07489 0.008,0.0702 0.016,0.14035 0.024,0.21054 0.16214,0.5122 0.23517,1.05111 0.39685,1.56015 0.26254,0.82657 0.47617,1.65664 0.76575,2.48135 0.19204,0.54697 0.3576,1.11997 0.55081,1.67014 0.3439,0.97937 0.76358,1.93588 1.14157,2.9046 0.2301,0.58969 0.53882,1.13452 0.78531,1.72165 0.69757,1.66156 1.5939,3.294606 2.45102,4.923306 0.27691,0.52618 0.58087,1.0101 0.88775,1.52401 0.19578,0.32792 0.39905,0.69535 0.57963,1.03309 0.0999,0.18688 0.22509,0.32779 0.33376,0.50927 0.2356,0.3934 0.49085,0.81626 0.72266,1.21262 0.21439,0.36655 0.45642,0.67956 0.69321,1.03686 0.25519,0.38511 0.5079,0.81855 0.7666,1.20536 0.44955,0.67221 0.92639,1.32183 1.37167,1.98581 0.46262,0.68978 0.98264,1.3005 1.47245,1.98043 0.94925,1.31766 2.0588,2.58173 3.08221,3.90424 0.30634,0.39584 0.67282,0.74194 0.97903,1.125 0.15275,0.1911 0.40812,0.35806 0.51151,0.55887 0.0421,0.0818 0.0661,0.20776 0.0955,0.30032 0.0472,0.14896 0.035,0.33292 0.037,0.49066 0.003,0.25254 0.0155,0.50833 -0.0287,0.77256 -0.0458,0.27377 -0.2197,0.5751 -0.33273,0.84545 -0.0908,0.21702 -0.31687,0.40833 -0.44477,0.51398 -0.10763,0.089 -0.15204,0.17169 -0.26175,0.25788 -0.28543,0.2243 -0.60843,0.40878 -0.92099,0.50256 -0.324,0.0972 -0.74276,-0.19379 -0.99871,-0.50076 -0.44773,-0.53702 -1.00763,-1.03003 -1.43732,-1.56849 -0.0919,-0.11514 -0.19391,-0.16622 -0.28415,-0.28039 -0.49609,-0.62756 -1.10507,-1.21851 -1.59503,-1.83591 -0.11185,-0.14093 -0.23441,-0.21994 -0.34284,-0.36099 -0.38092,-0.49548 -0.82724,-0.94205 -1.21374,-1.44745 -0.9689,-1.26688 -2.0137,-2.49097 -2.88977,-3.76675 -0.20484,-0.29828 -0.42465,-0.53385 -0.62528,-0.83356 -1.41897,-2.12009 -2.84286,-4.20346 -3.97982,-6.36377 -0.2992,-0.56845 -0.62983,-1.08539 -0.90982,-1.65582 -0.79496,-1.61963 -1.53644,-3.23825 -2.21653,-4.871856 -0.0894,-0.21463 -0.1542,-0.45462 -0.23678,-0.67209 -0.37247,-0.98065 -0.70999,-1.94906 -1.04453,-2.93197 -0.33749,-0.99155 -0.52951,-2.02744 -0.84491,-3.02149 -0.0665,-0.20965 -0.0868,-0.43704 -0.15439,-0.65188 -0.009,-0.0775 -0.0184,-0.15503 -0.0276,-0.23252 -0.0731,-0.23312 -0.0811,-0.48095 -0.15258,-0.70865 -0.17127,-0.54608 -0.22422,-1.13623 -0.31818,-1.69735 -0.0887,-0.52961 -0.20984,-1.0712 -0.2247,-1.61127 -0.0202,-0.0982 -0.0405,-0.19653 -0.0607,-0.2948 -0.01,-0.3508 -0.0983,-0.69751 -0.10706,-1.04358 -0.0152,-0.60406 -0.11102,-1.20618 -0.12225,-1.80887 -0.014,-0.74948 -0.0428,-1.50168 -0.0384,-2.2518 0.004,-0.751 0.0667,-1.48514 0.11005,-2.24252 0.11737,-2.05173 0.49258,-4.11334 0.9881,-6.23807 0.17974,-0.77072 0.46807,-1.52481 0.71081,-2.29684 0.16724,-0.53183 0.43033,-1.04429 0.61795,-1.57013 0.049,-0.13724 0.12509,-0.21878 0.17743,-0.35681 0.11243,-0.29661 0.25983,-0.66153 0.53421,-0.85627 0.12277,-0.0871 0.40494,-0.13372 0.54947,-0.091 0.10068,0.0297 0.16428,0.10712 0.2547,0.10458 z m -20.02313,14.70847 c 0.4544,0.32871 0.4187,0.81012 0.42956,1.216 0.0112,0.42063 0.13217,0.83933 0.14383,1.26334 0.0491,0.29294 0.0982,0.58594 0.14722,0.87887 0.006,0.23728 0.0661,0.46232 0.10492,0.69394 0.04,0.23871 0.0573,0.47883 0.13061,0.71229 0.0442,0.26364 0.0883,0.52734 0.13248,0.79098 0.0728,0.23224 0.081,0.4805 0.15259,0.70865 0.22131,0.7056 0.30591,1.45428 0.53103,2.1589 0.23865,0.74704 0.41303,1.51938 0.67215,2.25974 0.33942,0.96985 0.67157,1.94589 1.04084,2.91 0.18881,0.49295 0.41345,0.95377 0.61474,1.44504 0.1539,0.37558 0.30017,0.78485 0.47531,1.15198 0.72742,1.524656 1.47846,3.047966 2.27857,4.567986 0.63354,1.20364 1.38934,2.3522 2.08359,3.53897 0.21405,0.36591 0.45587,0.68045 0.6932,1.03684 0.53568,0.80441 1.10568,1.64096 1.65415,2.45843 0.51852,0.77283 1.14166,1.49313 1.68698,2.24976 0.0891,0.12359 0.19226,0.19043 0.27865,0.31515 0.27643,0.39908 0.63828,0.78348 0.94245,1.17621 0.15292,0.19748 0.34671,0.33456 0.48584,0.54053 0.30459,0.45102 0.49457,1.29208 0.34939,1.8164 -0.25146,0.90839 -1.12826,1.51999 -1.79565,1.75391 -0.20139,0.0706 -0.51566,0.19833 -0.73444,0.1329 -0.34478,-0.10308 -0.56479,-0.41006 -0.7662,-0.66345 -0.26035,-0.32757 -0.56378,-0.5654 -0.81583,-0.89233 -0.4657,-0.60413 -1.01385,-1.14408 -1.47958,-1.75345 -0.97525,-1.27603 -1.97412,-2.51041 -2.84033,-3.80881 -2.00553,-3.0061 -3.66965,-6.04068 -4.96747,-9.15835 -0.53873,-1.29419 -0.97241,-2.62882 -1.40613,-3.944706 -0.15445,-0.46853 -0.23898,-0.96981 -0.3876,-1.4375 -0.20371,-0.64102 -0.29419,-1.30209 -0.49424,-1.93917 -0.0104,-0.0848 -0.0209,-0.16968 -0.0313,-0.25452 -0.0324,-0.1423 -0.0806,-0.27951 -0.10473,-0.423 -0.0166,-0.12143 -0.0332,-0.24289 -0.0497,-0.36435 -0.0754,-0.2403 -0.0931,-0.48844 -0.13427,-0.73426 -0.04,-0.23871 -0.1019,-0.47143 -0.10865,-0.71588 -0.03,-0.15686 -0.0601,-0.31375 -0.0901,-0.47058 -0.0179,-0.63989 -0.17153,-1.267 -0.18463,-1.91144 -0.003,-0.15204 -0.0516,-0.31317 -0.0553,-0.46505 -0.015,-0.61637 -0.0759,-1.23453 -0.0728,-1.85093 0.003,-0.70193 -0.003,-1.41592 0.0405,-2.11807 0.0173,-0.27664 0.0657,-0.53735 0.0781,-0.8146 0.0136,-0.30411 0.0673,-0.5954 0.10736,-0.90976 0.0238,-0.18637 0.0241,-0.41202 0.0802,-0.60038 0.057,-0.19134 0.25266,-0.50067 0.43369,-0.57992 0.12353,-0.0541 0.36154,-0.10785 0.49637,-0.0709 0.10119,0.0277 0.16378,0.10699 0.2547,0.10458 z m -15.30039,3.18881 c 0.51068,0.37445 0.3689,0.84693 0.36551,1.30564 -0.005,0.73812 0.0693,1.47491 0.0878,2.20974 0.0147,0.58582 0.16464,1.16764 0.18085,1.754 0.0349,0.18613 0.0699,0.37231 0.10486,0.55847 0.009,0.32492 0.0792,0.74436 0.17663,1.05466 0.009,0.0775 0.0184,0.15503 0.0276,0.23251 0.0301,0.17993 0.0679,0.35694 0.12314,0.53287 0.0129,0.0995 0.0258,0.19897 0.0387,0.29843 0.13132,0.41885 0.17182,0.86697 0.30506,1.2818 0.31869,0.99213 0.57202,2.00693 0.92001,2.99774 0.75427,2.147616 1.78818,4.229306 2.88803,6.318756 0.35944,0.68286 0.80683,1.31827 1.1702,1.99661 0.15497,0.28925 0.35828,0.52411 0.53,0.8042 0.46939,0.76559 1.01355,1.5293 1.52396,2.28802 0.70642,1.05011 1.56695,2.00739 2.31771,3.04856 0.26306,0.36484 0.59525,0.68164 0.85074,1.03335 0.2272,0.31281 0.52124,0.54743 0.7645,0.85569 0.48187,0.61062 1.08935,1.1922 1.60052,1.80114 0.29505,0.35151 0.64591,0.63532 0.93131,0.97486 0.31878,0.37927 0.71978,0.68252 1.0339,1.04815 0.0794,0.0696 0.15888,0.13932 0.23831,0.20896 0.32041,0.37912 0.76764,0.71499 1.09806,1.09399 0.14102,0.16175 0.30835,0.2374 0.45092,0.39954 0.46344,0.52701 1.11707,0.9541 1.59296,1.48623 0.13584,0.15189 0.31662,0.2547 0.43811,0.39039 0.0513,0.0367 0.10263,0.0733 0.15396,0.10998 0.16422,0.18301 0.42002,0.35062 0.58658,0.53516 0.0556,0.0397 0.11118,0.0794 0.16678,0.11914 0.27209,0.302 0.69135,0.54104 0.966,0.84491 0.0727,0.0519 0.14539,0.10388 0.21808,0.15582 0.35016,0.38705 0.90561,0.66403 1.26108,1.05573 0.15945,0.12036 0.31894,0.24075 0.47839,0.36111 0.0778,0.0857 0.24585,0.15973 0.33725,0.26028 0.24204,0.2663 0.65015,0.47544 0.91278,0.7295 0.15525,0.1502 0.39869,0.25366 0.5297,0.39779 0.11554,0.12711 0.32504,0.21222 0.42703,0.32444 0.33356,0.23831 0.66718,0.47668 1.0007,0.71496 0.78952,0.56409 1.57627,1.09284 2.34046,1.63345 0.36172,0.25589 0.81082,0.45752 1.03372,0.77723 0.12591,0.1806 0.17615,0.44009 0.24228,0.63733 0.1488,0.44366 0.21023,0.97039 0.0853,1.45364 -0.038,0.14725 -0.11474,0.24661 -0.17004,0.40076 -0.0886,0.24691 -0.23587,0.63012 -0.49942,0.86178 -0.17142,0.15067 -0.35013,0.35376 -0.54001,0.48462 -0.29269,0.20166 -0.61191,0.0941 -0.96905,-0.054 -0.11423,-0.0752 -0.22849,-0.15036 -0.34272,-0.22552 -0.54766,-0.23514 -1.05935,-0.73828 -1.60907,-0.97549 -0.10589,-0.0457 -0.21676,-0.16028 -0.30423,-0.19803 -0.18264,-0.12403 -0.36532,-0.24811 -0.54797,-0.37217 -0.20105,-0.0869 -0.38165,-0.29785 -0.60846,-0.39602 -0.1897,-0.0821 -0.3837,-0.23547 -0.56998,-0.36853 -0.0684,-0.0489 -0.13684,-0.0978 -0.20526,-0.14664 -0.18307,-0.0793 -0.39935,-0.24676 -0.56997,-0.36853 -0.24802,-0.17718 -0.4961,-0.35443 -0.74411,-0.53165 -0.26636,-0.11569 -0.56177,-0.38202 -0.81742,-0.56463 -0.21179,-0.15131 -0.49865,-0.31436 -0.65799,-0.48944 -0.14538,-0.10389 -0.2908,-0.2078 -0.43618,-0.31165 -0.30365,-0.21692 -0.60306,-0.43094 -0.86695,-0.65808 -0.14538,-0.10388 -0.29083,-0.20776 -0.43622,-0.31165 -0.21051,-0.23226 -0.57559,-0.40802 -0.78448,-0.63784 -0.0984,-0.0703 -0.19672,-0.14057 -0.29507,-0.21082 -0.1525,-0.16852 -0.41562,-0.31592 -0.56641,-0.48202 -0.0855,-0.0611 -0.17105,-0.12223 -0.25659,-0.18332 -0.11566,-0.12824 -0.32215,-0.26239 -0.43808,-0.39038 -0.0684,-0.0489 -0.13684,-0.0978 -0.20526,-0.14664 -0.40064,-0.44461 -0.9874,-0.7804 -1.37845,-1.21695 -0.12219,-0.10019 -0.24439,-0.20041 -0.36658,-0.3006 -0.50568,-0.56866 -1.1893,-1.02542 -1.67731,-1.58517 -0.13269,-0.15225 -0.28231,-0.22092 -0.41244,-0.37204 -0.45111,-0.52402 -1.02686,-0.99094 -1.46106,-1.50812 -0.0716,-0.0853 -0.14136,-0.10507 -0.21265,-0.19058 -0.20468,-0.24558 -0.46908,-0.49924 -0.66733,-0.74759 -0.0923,-0.1156 -0.19232,-0.16446 -0.28414,-0.28037 -0.68689,-0.86685 -1.49442,-1.6405 -2.15976,-2.51019 -1.17832,-1.54013 -2.4076,-3.04309 -3.33921,-4.62942 -0.211,-0.35929 -0.46261,-0.65998 -0.66757,-1.01853 -0.36261,-0.6344 -0.75806,-1.25906 -1.09866,-1.90686 -0.53305,-1.01364 -1.03195,-2.03577 -1.51724,-3.05691 -0.34134,-0.71827 -0.61158,-1.49085 -0.89194,-2.22333 -0.2301,-0.60126 -0.44953,-1.18579 -0.6608,-1.78742 -0.20785,-0.59198 -0.35678,-1.20776 -0.5509,-1.80563 -0.19745,-0.60806 -0.27826,-1.253196 -0.47037,-1.864106 -0.073,-0.23205 -0.0654,-0.52496 -0.13794,-0.75622 -0.17892,-0.57028 -0.22195,-1.18997 -0.3201,-1.77609 -0.41888,-2.5018 -0.46234,-5.06363 -0.27875,-7.66544 0.0424,-0.60049 0.16739,-1.16922 0.26609,-1.78284 0.045,-0.27954 0.13668,-0.6347 0.44632,-0.84167 0.0987,-0.066 0.41262,-0.11795 0.52749,-0.0874 0.0942,0.0251 0.16806,0.10672 0.2547,0.10461 z" />
</svg>
