<svg id="Layer_1" data-name="Layer 1" xmlns="http://www.w3.org/2000/svg" xmlns:xlink="http://www.w3.org/1999/xlink" viewBox="0 0 512 512"><defs><style>.cls-1{fill:url(#linear-gradient);}.cls-2{fill:url(#linear-gradient-2);}.cls-3{fill:url(#linear-gradient-3);}.cls-4{fill:url(#linear-gradient-4);}.cls-5{fill:url(#linear-gradient-5);}.cls-6{fill:url(#linear-gradient-6);}</style><linearGradient id="linear-gradient" x1="24.66" y1="325.897" x2="500.375" y2="433.897" gradientUnits="userSpaceOnUse"><stop offset="0" stop-color="#edf1f2"/><stop offset="1" stop-color="#c6cbcc"/></linearGradient><linearGradient id="linear-gradient-2" x1="58.296" y1="84.099" x2="461.367" y2="329.028" gradientUnits="userSpaceOnUse"><stop offset="0" stop-color="#3e4154"/><stop offset="1" stop-color="#1b2129"/></linearGradient><linearGradient id="linear-gradient-3" x1="81.962" y1="104.908" x2="436.819" y2="297.765" gradientUnits="userSpaceOnUse"><stop offset="0" stop-color="#6fc6fc"/><stop offset="1" stop-color="#50a7f6"/></linearGradient><linearGradient id="linear-gradient-4" x1="24.729" y1="346.238" x2="487.586" y2="490.881" gradientUnits="userSpaceOnUse"><stop offset="0" stop-color="#c6cbcc"/><stop offset="1" stop-color="#9fa5a6"/></linearGradient><linearGradient id="linear-gradient-5" x1="43.187" y1="287.172" x2="506.044" y2="431.815" xlink:href="#linear-gradient-4"/><linearGradient id="linear-gradient-6" x1="32.968" y1="319.873" x2="495.826" y2="464.516" xlink:href="#linear-gradient-4"/></defs><path class="cls-1" d="M510.016,399.135,458.667,320c-2.006-2.807-7.224-10.667-10.667-10.667H64c-3.443,0-8.661,7.86-10.667,10.667L1.984,399.135A10.662,10.662,0,0,0,0,405.333V416a21.354,21.354,0,0,0,21.333,21.333H490.667A21.354,21.354,0,0,0,512,416V405.333A10.662,10.662,0,0,0,510.016,399.135Z"/><path class="cls-2" d="M427.135,74.667H84.865A31.569,31.569,0,0,0,53.333,106.2V320H458.667V106.2A31.569,31.569,0,0,0,427.135,74.667Z"/><path class="cls-3" d="M426.667,96H85.333a10.666,10.666,0,0,0-10.666,10.667v192H437.333v-192A10.666,10.666,0,0,0,426.667,96Z"/><path class="cls-4" d="M21.333,437.333H490.667A21.354,21.354,0,0,0,512,416V405.333H0V416A21.354,21.354,0,0,0,21.333,437.333Z"/><path class="cls-5" d="M58.19,373.333H463.81a5.333,5.333,0,0,0,4.621-8l-16.9-29.329a10.665,10.665,0,0,0-9.242-5.341H79.71a10.665,10.665,0,0,0-9.242,5.341l-16.9,29.329A5.333,5.333,0,0,0,58.19,373.333Z"/><path class="cls-6" d="M220.456,381.082l-1.513,16A2.667,2.667,0,0,0,221.6,400H290.4a2.667,2.667,0,0,0,2.654-2.918l-1.513-16a2.667,2.667,0,0,0-2.655-2.415H223.111A2.667,2.667,0,0,0,220.456,381.082Z"/></svg>